<svg id="Layer_1" viewBox="0 0 24 24" xmlns="http://www.w3.org/2000/svg" data-name="Layer 1"><path d="m24 8v-2c0-2.757-2.243-5-5-5h-14c-2.757 0-5 2.243-5 5v2zm-15.5-5c.828 0 1.5.672 1.5 1.5s-.672 1.5-1.5 1.5-1.5-.672-1.5-1.5.672-1.5 1.5-1.5zm-4 0c.828 0 1.5.672 1.5 1.5s-.672 1.5-1.5 1.5-1.5-.672-1.5-1.5.672-1.5 1.5-1.5zm-4.5 7v8c0 2.757 2.243 5 5 5h14c2.757 0 5-2.243 5-5v-8zm8.026 6.722 2.162 2.054c.4.38.417 1.013.036 1.413-.38.401-1.014.417-1.413.036l-2.181-2.071c-.891-.89-.891-2.308-.019-3.18l2.181-2.181c.391-.391 1.023-.391 1.414 0s.391 1.023 0 1.414l-2.181 2.181c-.092.092-.092.242 0 .334zm9.361 1.414-2.17 2.104c-.396.384-1.029.375-1.414-.021s-.375-1.03.021-1.414l2.159-2.093c.081-.081.081-.231-.011-.323l-2.181-2.181c-.391-.391-.391-1.023 0-1.414s1.023-.391 1.414 0l2.181 2.181c.872.872.872 2.29 0 3.162z"/></svg>